<svg width="26" height="26" viewBox="0 0 26 26" fill="none" xmlns="http://www.w3.org/2000/svg">
<path d="M5.86613 24.2543L6.6 16.186V12.186C6.6 10.586 7.4 10.586 9.8 10.586C11.0132 10.7541 12.1376 11.3163 13 12.186C13.8624 11.3163 14.9868 10.7541 16.2 10.586C18.6 10.586 19.4 10.586 19.4 12.186V16.186L20.1339 24.2585C20.1517 24.4574 20.2434 24.6424 20.3909 24.7771C20.5384 24.9117 20.731 24.9863 20.9307 24.986H21.8C22.6487 24.986 23.4626 24.6488 24.0627 24.0487C24.6629 23.4486 25 22.6347 25 21.786V21.786L21.8 10.586C21.8 5.19718 18.8357 1.28892 13.6208 1.00305C12.3838 0.97116 11.1531 1.18955 10.0026 1.64511C8.85206 2.10068 7.80546 2.78402 6.9256 3.65411C6.04574 4.52421 5.35076 5.56312 4.88239 6.70848C4.41402 7.85384 4.18191 9.08203 4.2 10.3193L1 21.7807C1 22.6293 1.33714 23.4433 1.93726 24.0434C2.53737 24.6435 3.35131 24.9807 4.2 24.9807H5.06933C5.26887 24.9809 5.46129 24.9066 5.60875 24.7721C5.7562 24.6377 5.84802 24.453 5.86613 24.2543V24.2543Z" stroke="black" stroke-linecap="round" stroke-linejoin="round"/>
<path d="M19.4 15.3818H17C15.4 15.3818 13 15.3818 13 12.1818C13 15.3818 10.6 15.3818 8.99998 15.3818H6.59998" stroke="black" stroke-linecap="round" stroke-linejoin="round"/>
<path d="M6.41553 18.2126L9.00006 23.3817H17.0001L19.5846 18.2126" stroke="black" stroke-linecap="round" stroke-linejoin="round"/>
<path d="M15.4726 1.27295L14.6 7.38175H11.4L10.5446 1.39562" stroke="black" stroke-linecap="round" stroke-linejoin="round"/>
</svg>
